<mxfile host="app.diagrams.net" modified="2024-05-15T11:36:34.394Z" agent="Mozilla/5.0 (Macintosh; Intel Mac OS X 10.15; rv:125.0) Gecko/20100101 Firefox/125.0" etag="urK2AvAY1Z_Z7uEpeIfF" version="22.1.18" type="github">
  <diagram name="Page-1" id="AjwULoWMy9asSLQhuLiu">
    <mxGraphModel dx="1093" dy="704" grid="1" gridSize="10" guides="1" tooltips="1" connect="1" arrows="1" fold="1" page="1" pageScale="1" pageWidth="827" pageHeight="1169" math="0" shadow="0">
      <root>
        <mxCell id="0" />
        <mxCell id="1" parent="0" />
        <mxCell id="D1IQfgWgTyx_je3_ZWLh-3" value="Joueurs" style="shape=umlActor;verticalLabelPosition=bottom;verticalAlign=top;html=1;outlineConnect=0;" vertex="1" parent="1">
          <mxGeometry x="30" y="352.5" width="50" height="90" as="geometry" />
        </mxCell>
        <mxCell id="D1IQfgWgTyx_je3_ZWLh-4" value="" style="rounded=1;whiteSpace=wrap;html=1;" vertex="1" parent="1">
          <mxGeometry x="140" y="360" width="120" height="75" as="geometry" />
        </mxCell>
        <mxCell id="D1IQfgWgTyx_je3_ZWLh-7" value="" style="rounded=1;whiteSpace=wrap;html=1;" vertex="1" parent="1">
          <mxGeometry x="140" y="240" width="120" height="75" as="geometry" />
        </mxCell>
        <mxCell id="D1IQfgWgTyx_je3_ZWLh-8" value="Créer un compte" style="text;html=1;strokeColor=none;fillColor=none;align=center;verticalAlign=middle;whiteSpace=wrap;rounded=0;" vertex="1" parent="1">
          <mxGeometry x="160" y="257.5" width="80" height="40" as="geometry" />
        </mxCell>
        <mxCell id="D1IQfgWgTyx_je3_ZWLh-9" value="Se connecter" style="text;html=1;strokeColor=none;fillColor=none;align=center;verticalAlign=middle;whiteSpace=wrap;rounded=0;" vertex="1" parent="1">
          <mxGeometry x="160" y="377.5" width="80" height="40" as="geometry" />
        </mxCell>
        <mxCell id="D1IQfgWgTyx_je3_ZWLh-10" value="" style="rounded=1;whiteSpace=wrap;html=1;" vertex="1" parent="1">
          <mxGeometry x="140" y="470" width="120" height="75" as="geometry" />
        </mxCell>
        <mxCell id="D1IQfgWgTyx_je3_ZWLh-11" value="Jouer en non connecté" style="text;html=1;strokeColor=none;fillColor=none;align=center;verticalAlign=middle;whiteSpace=wrap;rounded=0;" vertex="1" parent="1">
          <mxGeometry x="160" y="487.5" width="80" height="40" as="geometry" />
        </mxCell>
        <mxCell id="D1IQfgWgTyx_je3_ZWLh-13" value="" style="endArrow=none;html=1;rounded=0;entryX=0;entryY=0.5;entryDx=0;entryDy=0;" edge="1" parent="1" target="D1IQfgWgTyx_je3_ZWLh-7">
          <mxGeometry width="50" height="50" relative="1" as="geometry">
            <mxPoint x="90" y="400" as="sourcePoint" />
            <mxPoint x="80" y="310" as="targetPoint" />
          </mxGeometry>
        </mxCell>
        <mxCell id="D1IQfgWgTyx_je3_ZWLh-14" value="" style="endArrow=none;html=1;rounded=0;exitX=0;exitY=0.5;exitDx=0;exitDy=0;" edge="1" parent="1" source="D1IQfgWgTyx_je3_ZWLh-10">
          <mxGeometry width="50" height="50" relative="1" as="geometry">
            <mxPoint x="40" y="450" as="sourcePoint" />
            <mxPoint x="90" y="400" as="targetPoint" />
          </mxGeometry>
        </mxCell>
        <mxCell id="D1IQfgWgTyx_je3_ZWLh-15" value="" style="endArrow=none;html=1;rounded=0;entryX=0;entryY=0.5;entryDx=0;entryDy=0;" edge="1" parent="1" target="D1IQfgWgTyx_je3_ZWLh-4">
          <mxGeometry width="50" height="50" relative="1" as="geometry">
            <mxPoint x="90" y="400" as="sourcePoint" />
            <mxPoint x="140" y="352.5" as="targetPoint" />
          </mxGeometry>
        </mxCell>
        <mxCell id="D1IQfgWgTyx_je3_ZWLh-16" value="" style="rounded=1;whiteSpace=wrap;html=1;" vertex="1" parent="1">
          <mxGeometry x="320" y="190" width="170" height="90" as="geometry" />
        </mxCell>
        <mxCell id="D1IQfgWgTyx_je3_ZWLh-17" value="Accéder à un formulaire de création de compte " style="text;html=1;strokeColor=none;fillColor=none;align=center;verticalAlign=middle;whiteSpace=wrap;rounded=0;" vertex="1" parent="1">
          <mxGeometry x="342.5" y="220" width="125" height="35" as="geometry" />
        </mxCell>
        <mxCell id="D1IQfgWgTyx_je3_ZWLh-18" value="" style="rounded=1;whiteSpace=wrap;html=1;" vertex="1" parent="1">
          <mxGeometry x="540" y="185" width="80" height="30" as="geometry" />
        </mxCell>
        <mxCell id="D1IQfgWgTyx_je3_ZWLh-19" value="Mail" style="text;html=1;strokeColor=none;fillColor=none;align=center;verticalAlign=middle;whiteSpace=wrap;rounded=0;" vertex="1" parent="1">
          <mxGeometry x="517.5" y="180" width="125" height="35" as="geometry" />
        </mxCell>
        <mxCell id="D1IQfgWgTyx_je3_ZWLh-20" value="Mot de passe" style="rounded=1;whiteSpace=wrap;html=1;" vertex="1" parent="1">
          <mxGeometry x="540" y="227.5" width="80" height="30" as="geometry" />
        </mxCell>
        <mxCell id="D1IQfgWgTyx_je3_ZWLh-21" value="Confirmation de mot passe" style="rounded=1;whiteSpace=wrap;html=1;" vertex="1" parent="1">
          <mxGeometry x="540" y="267.5" width="80" height="30" as="geometry" />
        </mxCell>
        <mxCell id="D1IQfgWgTyx_je3_ZWLh-25" value="" style="endArrow=none;dashed=1;html=1;dashPattern=1 3;strokeWidth=2;rounded=0;entryX=0.5;entryY=1;entryDx=0;entryDy=0;" edge="1" parent="1" source="D1IQfgWgTyx_je3_ZWLh-28" target="D1IQfgWgTyx_je3_ZWLh-7">
          <mxGeometry width="50" height="50" relative="1" as="geometry">
            <mxPoint x="200" y="360" as="sourcePoint" />
            <mxPoint x="250" y="310" as="targetPoint" />
          </mxGeometry>
        </mxCell>
        <mxCell id="D1IQfgWgTyx_je3_ZWLh-26" value="" style="endArrow=classic;html=1;rounded=0;" edge="1" parent="1">
          <mxGeometry width="50" height="50" relative="1" as="geometry">
            <mxPoint x="199.91" y="352.5" as="sourcePoint" />
            <mxPoint x="199.91" y="360" as="targetPoint" />
          </mxGeometry>
        </mxCell>
        <mxCell id="D1IQfgWgTyx_je3_ZWLh-29" value="" style="endArrow=none;html=1;rounded=0;entryX=0;entryY=0.5;entryDx=0;entryDy=0;" edge="1" parent="1" target="D1IQfgWgTyx_je3_ZWLh-16">
          <mxGeometry width="50" height="50" relative="1" as="geometry">
            <mxPoint x="260" y="280" as="sourcePoint" />
            <mxPoint x="310" y="230" as="targetPoint" />
          </mxGeometry>
        </mxCell>
        <mxCell id="D1IQfgWgTyx_je3_ZWLh-30" value="" style="endArrow=classic;html=1;rounded=0;exitX=0.18;exitY=0.571;exitDx=0;exitDy=0;exitPerimeter=0;entryX=1.012;entryY=0.456;entryDx=0;entryDy=0;entryPerimeter=0;" edge="1" parent="1" source="D1IQfgWgTyx_je3_ZWLh-19" target="D1IQfgWgTyx_je3_ZWLh-16">
          <mxGeometry width="50" height="50" relative="1" as="geometry">
            <mxPoint x="520" y="220" as="sourcePoint" />
            <mxPoint x="490" y="240" as="targetPoint" />
          </mxGeometry>
        </mxCell>
        <mxCell id="D1IQfgWgTyx_je3_ZWLh-31" value="" style="endArrow=classic;html=1;rounded=0;exitX=0;exitY=0.5;exitDx=0;exitDy=0;" edge="1" parent="1" source="D1IQfgWgTyx_je3_ZWLh-20">
          <mxGeometry width="50" height="50" relative="1" as="geometry">
            <mxPoint x="520" y="242.18" as="sourcePoint" />
            <mxPoint x="490" y="242.18" as="targetPoint" />
          </mxGeometry>
        </mxCell>
        <mxCell id="D1IQfgWgTyx_je3_ZWLh-32" value="" style="endArrow=classic;html=1;rounded=0;exitX=0;exitY=0.5;exitDx=0;exitDy=0;entryX=1;entryY=0.75;entryDx=0;entryDy=0;" edge="1" parent="1" source="D1IQfgWgTyx_je3_ZWLh-21" target="D1IQfgWgTyx_je3_ZWLh-16">
          <mxGeometry width="50" height="50" relative="1" as="geometry">
            <mxPoint x="530" y="267.5" as="sourcePoint" />
            <mxPoint x="490" y="247.5" as="targetPoint" />
          </mxGeometry>
        </mxCell>
        <mxCell id="D1IQfgWgTyx_je3_ZWLh-33" value="Pseudo" style="rounded=1;whiteSpace=wrap;html=1;" vertex="1" parent="1">
          <mxGeometry x="540" y="100" width="80" height="30" as="geometry" />
        </mxCell>
        <mxCell id="D1IQfgWgTyx_je3_ZWLh-34" value="Date de naissance" style="rounded=1;whiteSpace=wrap;html=1;" vertex="1" parent="1">
          <mxGeometry x="540" y="140" width="80" height="30" as="geometry" />
        </mxCell>
        <mxCell id="D1IQfgWgTyx_je3_ZWLh-35" value="" style="endArrow=classic;html=1;rounded=0;exitX=0.18;exitY=0.571;exitDx=0;exitDy=0;exitPerimeter=0;entryX=1.005;entryY=0.197;entryDx=0;entryDy=0;entryPerimeter=0;" edge="1" parent="1" target="D1IQfgWgTyx_je3_ZWLh-16">
          <mxGeometry width="50" height="50" relative="1" as="geometry">
            <mxPoint x="540" y="120" as="sourcePoint" />
            <mxPoint x="490" y="160" as="targetPoint" />
          </mxGeometry>
        </mxCell>
        <mxCell id="D1IQfgWgTyx_je3_ZWLh-36" value="" style="endArrow=classic;html=1;rounded=0;exitX=0.18;exitY=0.571;exitDx=0;exitDy=0;exitPerimeter=0;entryX=1.005;entryY=0.348;entryDx=0;entryDy=0;entryPerimeter=0;" edge="1" parent="1" target="D1IQfgWgTyx_je3_ZWLh-16">
          <mxGeometry width="50" height="50" relative="1" as="geometry">
            <mxPoint x="540" y="160" as="sourcePoint" />
            <mxPoint x="490" y="200" as="targetPoint" />
          </mxGeometry>
        </mxCell>
        <mxCell id="D1IQfgWgTyx_je3_ZWLh-37" value="Accéder au tutoriel" style="rounded=1;whiteSpace=wrap;html=1;" vertex="1" parent="1">
          <mxGeometry x="320" y="477.5" width="120" height="60" as="geometry" />
        </mxCell>
        <mxCell id="D1IQfgWgTyx_je3_ZWLh-38" value="Accède au menu d&#39;utilisateur" style="rounded=1;whiteSpace=wrap;html=1;" vertex="1" parent="1">
          <mxGeometry x="320" y="367.5" width="120" height="60" as="geometry" />
        </mxCell>
        <mxCell id="D1IQfgWgTyx_je3_ZWLh-39" value="" style="endArrow=none;dashed=1;html=1;dashPattern=1 3;strokeWidth=2;rounded=0;exitX=0.5;exitY=0;exitDx=0;exitDy=0;" edge="1" parent="1" source="D1IQfgWgTyx_je3_ZWLh-42">
          <mxGeometry width="50" height="50" relative="1" as="geometry">
            <mxPoint x="330" y="477.5" as="sourcePoint" />
            <mxPoint x="380" y="427.5" as="targetPoint" />
          </mxGeometry>
        </mxCell>
        <mxCell id="D1IQfgWgTyx_je3_ZWLh-40" value="" style="endArrow=classic;html=1;rounded=0;" edge="1" parent="1">
          <mxGeometry width="50" height="50" relative="1" as="geometry">
            <mxPoint x="379.85" y="480" as="sourcePoint" />
            <mxPoint x="379.85" y="480" as="targetPoint" />
          </mxGeometry>
        </mxCell>
        <mxCell id="D1IQfgWgTyx_je3_ZWLh-41" value="" style="endArrow=classic;html=1;rounded=0;" edge="1" parent="1">
          <mxGeometry width="50" height="50" relative="1" as="geometry">
            <mxPoint x="380.15" y="437.5" as="sourcePoint" />
            <mxPoint x="379.85" y="427.5" as="targetPoint" />
          </mxGeometry>
        </mxCell>
        <mxCell id="D1IQfgWgTyx_je3_ZWLh-43" value="" style="endArrow=none;html=1;rounded=0;entryX=0;entryY=0.5;entryDx=0;entryDy=0;exitX=1;exitY=0.5;exitDx=0;exitDy=0;" edge="1" parent="1" source="D1IQfgWgTyx_je3_ZWLh-10" target="D1IQfgWgTyx_je3_ZWLh-37">
          <mxGeometry width="50" height="50" relative="1" as="geometry">
            <mxPoint x="260" y="520" as="sourcePoint" />
            <mxPoint x="310" y="470" as="targetPoint" />
          </mxGeometry>
        </mxCell>
        <mxCell id="D1IQfgWgTyx_je3_ZWLh-44" value="" style="endArrow=none;html=1;rounded=0;entryX=0;entryY=0.5;entryDx=0;entryDy=0;exitX=1;exitY=0.5;exitDx=0;exitDy=0;" edge="1" parent="1" source="D1IQfgWgTyx_je3_ZWLh-4" target="D1IQfgWgTyx_je3_ZWLh-38">
          <mxGeometry width="50" height="50" relative="1" as="geometry">
            <mxPoint x="220" y="450" as="sourcePoint" />
            <mxPoint x="270" y="400" as="targetPoint" />
          </mxGeometry>
        </mxCell>
        <mxCell id="D1IQfgWgTyx_je3_ZWLh-46" value="" style="endArrow=none;html=1;rounded=0;entryX=0.5;entryY=1;entryDx=0;entryDy=0;" edge="1" parent="1" target="D1IQfgWgTyx_je3_ZWLh-16">
          <mxGeometry width="50" height="50" relative="1" as="geometry">
            <mxPoint x="260" y="367.5" as="sourcePoint" />
            <mxPoint x="310" y="317.5" as="targetPoint" />
          </mxGeometry>
        </mxCell>
        <mxCell id="D1IQfgWgTyx_je3_ZWLh-47" value="Accéder aux différentes histoires" style="rounded=1;whiteSpace=wrap;html=1;" vertex="1" parent="1">
          <mxGeometry x="540" y="380" width="90" height="47.5" as="geometry" />
        </mxCell>
        <mxCell id="D1IQfgWgTyx_je3_ZWLh-48" value="Voir son grade" style="rounded=1;whiteSpace=wrap;html=1;" vertex="1" parent="1">
          <mxGeometry x="540" y="312.5" width="90" height="40" as="geometry" />
        </mxCell>
        <mxCell id="D1IQfgWgTyx_je3_ZWLh-49" value="Contacter les admins" style="rounded=1;whiteSpace=wrap;html=1;" vertex="1" parent="1">
          <mxGeometry x="540" y="460" width="90" height="40" as="geometry" />
        </mxCell>
        <mxCell id="D1IQfgWgTyx_je3_ZWLh-50" value="" style="endArrow=none;html=1;rounded=0;entryX=0;entryY=0.5;entryDx=0;entryDy=0;" edge="1" parent="1" target="D1IQfgWgTyx_je3_ZWLh-48">
          <mxGeometry width="50" height="50" relative="1" as="geometry">
            <mxPoint x="440" y="400" as="sourcePoint" />
            <mxPoint x="510" y="350" as="targetPoint" />
          </mxGeometry>
        </mxCell>
        <mxCell id="D1IQfgWgTyx_je3_ZWLh-51" value="" style="endArrow=none;html=1;rounded=0;entryX=0;entryY=0.5;entryDx=0;entryDy=0;" edge="1" parent="1" target="D1IQfgWgTyx_je3_ZWLh-47">
          <mxGeometry width="50" height="50" relative="1" as="geometry">
            <mxPoint x="440" y="400" as="sourcePoint" />
            <mxPoint x="510" y="350" as="targetPoint" />
          </mxGeometry>
        </mxCell>
        <mxCell id="D1IQfgWgTyx_je3_ZWLh-52" value="" style="endArrow=none;html=1;rounded=0;entryX=0;entryY=0.5;entryDx=0;entryDy=0;" edge="1" parent="1" target="D1IQfgWgTyx_je3_ZWLh-49">
          <mxGeometry width="50" height="50" relative="1" as="geometry">
            <mxPoint x="440" y="400" as="sourcePoint" />
            <mxPoint x="510" y="350" as="targetPoint" />
          </mxGeometry>
        </mxCell>
        <mxCell id="D1IQfgWgTyx_je3_ZWLh-53" value="Icone utilisateur" style="rounded=1;whiteSpace=wrap;html=1;" vertex="1" parent="1">
          <mxGeometry x="540" y="527.5" width="90" height="40" as="geometry" />
        </mxCell>
        <mxCell id="D1IQfgWgTyx_je3_ZWLh-54" value="" style="endArrow=none;html=1;rounded=0;entryX=0;entryY=0.5;entryDx=0;entryDy=0;" edge="1" parent="1" target="D1IQfgWgTyx_je3_ZWLh-53">
          <mxGeometry width="50" height="50" relative="1" as="geometry">
            <mxPoint x="440" y="400" as="sourcePoint" />
            <mxPoint x="510" y="350" as="targetPoint" />
          </mxGeometry>
        </mxCell>
        <mxCell id="D1IQfgWgTyx_je3_ZWLh-55" value="Titre" style="rounded=1;whiteSpace=wrap;html=1;" vertex="1" parent="1">
          <mxGeometry x="690" y="323.75" width="80" height="17.5" as="geometry" />
        </mxCell>
        <mxCell id="D1IQfgWgTyx_je3_ZWLh-56" value="Difficultée" style="rounded=1;whiteSpace=wrap;html=1;" vertex="1" parent="1">
          <mxGeometry x="690" y="360" width="80" height="17.5" as="geometry" />
        </mxCell>
        <mxCell id="D1IQfgWgTyx_je3_ZWLh-57" value="Début du résumé" style="rounded=1;whiteSpace=wrap;html=1;" vertex="1" parent="1">
          <mxGeometry x="690" y="397.5" width="80" height="30" as="geometry" />
        </mxCell>
        <mxCell id="D1IQfgWgTyx_je3_ZWLh-58" value="Intégralité du résumé" style="rounded=1;whiteSpace=wrap;html=1;" vertex="1" parent="1">
          <mxGeometry x="830" y="397.5" width="80" height="30" as="geometry" />
        </mxCell>
        <mxCell id="D1IQfgWgTyx_je3_ZWLh-62" value="" style="endArrow=none;dashed=1;html=1;dashPattern=1 3;strokeWidth=2;rounded=0;entryX=0;entryY=0.5;entryDx=0;entryDy=0;exitX=1;exitY=0.5;exitDx=0;exitDy=0;" edge="1" parent="1" source="D1IQfgWgTyx_je3_ZWLh-65" target="D1IQfgWgTyx_je3_ZWLh-58">
          <mxGeometry width="50" height="50" relative="1" as="geometry">
            <mxPoint x="770" y="417.5" as="sourcePoint" />
            <mxPoint x="820" y="367.5" as="targetPoint" />
          </mxGeometry>
        </mxCell>
        <mxCell id="D1IQfgWgTyx_je3_ZWLh-63" value="" style="endArrow=classic;html=1;rounded=0;" edge="1" parent="1">
          <mxGeometry width="50" height="50" relative="1" as="geometry">
            <mxPoint x="780" y="425" as="sourcePoint" />
            <mxPoint x="780" y="425" as="targetPoint" />
          </mxGeometry>
        </mxCell>
        <mxCell id="D1IQfgWgTyx_je3_ZWLh-64" value="" style="endArrow=classic;html=1;rounded=0;" edge="1" parent="1">
          <mxGeometry width="50" height="50" relative="1" as="geometry">
            <mxPoint x="780" y="412.36" as="sourcePoint" />
            <mxPoint x="770" y="412.36" as="targetPoint" />
          </mxGeometry>
        </mxCell>
        <mxCell id="D1IQfgWgTyx_je3_ZWLh-66" value="Complétion" style="rounded=1;whiteSpace=wrap;html=1;" vertex="1" parent="1">
          <mxGeometry x="690" y="447.5" width="80" height="17.5" as="geometry" />
        </mxCell>
        <mxCell id="D1IQfgWgTyx_je3_ZWLh-67" value="" style="endArrow=none;html=1;rounded=0;entryX=0;entryY=0.5;entryDx=0;entryDy=0;exitX=1;exitY=0.5;exitDx=0;exitDy=0;" edge="1" parent="1" source="D1IQfgWgTyx_je3_ZWLh-47" target="D1IQfgWgTyx_je3_ZWLh-66">
          <mxGeometry width="50" height="50" relative="1" as="geometry">
            <mxPoint x="630" y="400" as="sourcePoint" />
            <mxPoint x="750" y="390" as="targetPoint" />
          </mxGeometry>
        </mxCell>
        <mxCell id="D1IQfgWgTyx_je3_ZWLh-68" value="" style="endArrow=none;html=1;rounded=0;entryX=0;entryY=0.5;entryDx=0;entryDy=0;" edge="1" parent="1" target="D1IQfgWgTyx_je3_ZWLh-55">
          <mxGeometry width="50" height="50" relative="1" as="geometry">
            <mxPoint x="630" y="402.5" as="sourcePoint" />
            <mxPoint x="680" y="352.5" as="targetPoint" />
          </mxGeometry>
        </mxCell>
        <mxCell id="D1IQfgWgTyx_je3_ZWLh-69" value="" style="endArrow=none;html=1;rounded=0;exitX=1.007;exitY=0.459;exitDx=0;exitDy=0;exitPerimeter=0;entryX=0;entryY=0.5;entryDx=0;entryDy=0;" edge="1" parent="1" source="D1IQfgWgTyx_je3_ZWLh-47" target="D1IQfgWgTyx_je3_ZWLh-56">
          <mxGeometry width="50" height="50" relative="1" as="geometry">
            <mxPoint x="650" y="422.5" as="sourcePoint" />
            <mxPoint x="700" y="372.5" as="targetPoint" />
          </mxGeometry>
        </mxCell>
        <mxCell id="D1IQfgWgTyx_je3_ZWLh-70" value="" style="endArrow=none;html=1;rounded=0;exitX=1.001;exitY=0.465;exitDx=0;exitDy=0;entryX=0;entryY=0.5;entryDx=0;entryDy=0;exitPerimeter=0;" edge="1" parent="1" source="D1IQfgWgTyx_je3_ZWLh-47" target="D1IQfgWgTyx_je3_ZWLh-57">
          <mxGeometry width="50" height="50" relative="1" as="geometry">
            <mxPoint x="700" y="440" as="sourcePoint" />
            <mxPoint x="750" y="390" as="targetPoint" />
          </mxGeometry>
        </mxCell>
        <mxCell id="D1IQfgWgTyx_je3_ZWLh-71" value="Lancer l&#39;histoire" style="rounded=1;whiteSpace=wrap;html=1;" vertex="1" parent="1">
          <mxGeometry x="690" y="487.5" width="80" height="30" as="geometry" />
        </mxCell>
        <mxCell id="D1IQfgWgTyx_je3_ZWLh-72" value="" style="endArrow=none;html=1;rounded=0;entryX=1;entryY=0.5;entryDx=0;entryDy=0;exitX=0;exitY=0.5;exitDx=0;exitDy=0;" edge="1" parent="1" source="D1IQfgWgTyx_je3_ZWLh-71" target="D1IQfgWgTyx_je3_ZWLh-47">
          <mxGeometry width="50" height="50" relative="1" as="geometry">
            <mxPoint x="790" y="500" as="sourcePoint" />
            <mxPoint x="840" y="450" as="targetPoint" />
          </mxGeometry>
        </mxCell>
        <mxCell id="D1IQfgWgTyx_je3_ZWLh-73" value="Accéder à ses informations de profil" style="rounded=1;whiteSpace=wrap;html=1;" vertex="1" parent="1">
          <mxGeometry x="360" y="567.5" width="120" height="35" as="geometry" />
        </mxCell>
        <mxCell id="D1IQfgWgTyx_je3_ZWLh-74" value="Modifier ses informations" style="rounded=1;whiteSpace=wrap;html=1;" vertex="1" parent="1">
          <mxGeometry x="360" y="650" width="120" height="35" as="geometry" />
        </mxCell>
        <mxCell id="D1IQfgWgTyx_je3_ZWLh-76" value="" style="endArrow=none;dashed=1;html=1;dashPattern=1 3;strokeWidth=2;rounded=0;entryX=0.5;entryY=1;entryDx=0;entryDy=0;exitX=0.5;exitY=0;exitDx=0;exitDy=0;" edge="1" parent="1" source="D1IQfgWgTyx_je3_ZWLh-78" target="D1IQfgWgTyx_je3_ZWLh-73">
          <mxGeometry width="50" height="50" relative="1" as="geometry">
            <mxPoint x="414" y="620" as="sourcePoint" />
            <mxPoint x="464" y="570" as="targetPoint" />
          </mxGeometry>
        </mxCell>
        <mxCell id="D1IQfgWgTyx_je3_ZWLh-79" value="" style="endArrow=none;html=1;rounded=0;" edge="1" parent="1">
          <mxGeometry width="50" height="50" relative="1" as="geometry">
            <mxPoint x="480" y="587.5" as="sourcePoint" />
            <mxPoint x="540" y="550" as="targetPoint" />
          </mxGeometry>
        </mxCell>
        <mxCell id="D1IQfgWgTyx_je3_ZWLh-80" value="Admins" style="shape=umlActor;verticalLabelPosition=bottom;verticalAlign=top;html=1;outlineConnect=0;" vertex="1" parent="1">
          <mxGeometry x="1449.5" y="188.13" width="50" height="90" as="geometry" />
        </mxCell>
        <mxCell id="D1IQfgWgTyx_je3_ZWLh-83" value="Accéder aux messages des joueurs" style="rounded=1;whiteSpace=wrap;html=1;" vertex="1" parent="1">
          <mxGeometry x="1259.5" y="103.13" width="120" height="60" as="geometry" />
        </mxCell>
        <mxCell id="D1IQfgWgTyx_je3_ZWLh-84" value="Accéder aux informations des joueurs" style="rounded=1;whiteSpace=wrap;html=1;" vertex="1" parent="1">
          <mxGeometry x="1259.5" y="205.63" width="120" height="60" as="geometry" />
        </mxCell>
        <mxCell id="D1IQfgWgTyx_je3_ZWLh-85" value="Modifications des informations des joueurs" style="rounded=1;whiteSpace=wrap;html=1;" vertex="1" parent="1">
          <mxGeometry x="1040.5" y="205.63" width="120" height="60" as="geometry" />
        </mxCell>
        <mxCell id="D1IQfgWgTyx_je3_ZWLh-86" value="" style="endArrow=none;dashed=1;html=1;dashPattern=1 3;strokeWidth=2;rounded=0;exitX=1;exitY=0.5;exitDx=0;exitDy=0;" edge="1" parent="1" source="D1IQfgWgTyx_je3_ZWLh-89">
          <mxGeometry width="50" height="50" relative="1" as="geometry">
            <mxPoint x="1149.5" y="118.31" as="sourcePoint" />
            <mxPoint x="1249.5" y="125.63" as="targetPoint" />
          </mxGeometry>
        </mxCell>
        <mxCell id="D1IQfgWgTyx_je3_ZWLh-87" value="" style="endArrow=classic;html=1;rounded=0;" edge="1" parent="1">
          <mxGeometry width="50" height="50" relative="1" as="geometry">
            <mxPoint x="1238.5" y="118.13" as="sourcePoint" />
            <mxPoint x="1238.5" y="118.13" as="targetPoint" />
          </mxGeometry>
        </mxCell>
        <mxCell id="D1IQfgWgTyx_je3_ZWLh-88" value="" style="endArrow=classic;html=1;rounded=0;entryX=0.012;entryY=0.395;entryDx=0;entryDy=0;entryPerimeter=0;" edge="1" parent="1" target="D1IQfgWgTyx_je3_ZWLh-83">
          <mxGeometry width="50" height="50" relative="1" as="geometry">
            <mxPoint x="1249.5" y="125.63" as="sourcePoint" />
            <mxPoint x="1248.5" y="118.13" as="targetPoint" />
          </mxGeometry>
        </mxCell>
        <mxCell id="D1IQfgWgTyx_je3_ZWLh-90" value="" style="endArrow=none;html=1;rounded=0;exitX=1;exitY=0.5;exitDx=0;exitDy=0;" edge="1" parent="1" source="D1IQfgWgTyx_je3_ZWLh-84">
          <mxGeometry width="50" height="50" relative="1" as="geometry">
            <mxPoint x="1379.5" y="248.13" as="sourcePoint" />
            <mxPoint x="1439.5" y="245.63" as="targetPoint" />
          </mxGeometry>
        </mxCell>
        <mxCell id="D1IQfgWgTyx_je3_ZWLh-92" value="" style="endArrow=none;html=1;rounded=0;" edge="1" parent="1">
          <mxGeometry width="50" height="50" relative="1" as="geometry">
            <mxPoint x="1379.5" y="135.63" as="sourcePoint" />
            <mxPoint x="1439.5" y="245.63" as="targetPoint" />
          </mxGeometry>
        </mxCell>
        <mxCell id="D1IQfgWgTyx_je3_ZWLh-93" value="Répondre aux messages des joueurs" style="rounded=1;whiteSpace=wrap;html=1;" vertex="1" parent="1">
          <mxGeometry x="1040.5" y="86.88" width="120" height="60" as="geometry" />
        </mxCell>
        <mxCell id="D1IQfgWgTyx_je3_ZWLh-94" value="" style="endArrow=none;dashed=1;html=1;dashPattern=1 3;strokeWidth=2;rounded=0;exitX=1;exitY=0.5;exitDx=0;exitDy=0;" edge="1" parent="1" source="D1IQfgWgTyx_je3_ZWLh-97">
          <mxGeometry width="50" height="50" relative="1" as="geometry">
            <mxPoint x="1154" y="230.81" as="sourcePoint" />
            <mxPoint x="1254" y="238.13" as="targetPoint" />
          </mxGeometry>
        </mxCell>
        <mxCell id="D1IQfgWgTyx_je3_ZWLh-95" value="" style="endArrow=classic;html=1;rounded=0;" edge="1" parent="1">
          <mxGeometry width="50" height="50" relative="1" as="geometry">
            <mxPoint x="1243" y="230.63" as="sourcePoint" />
            <mxPoint x="1243" y="230.63" as="targetPoint" />
          </mxGeometry>
        </mxCell>
        <mxCell id="D1IQfgWgTyx_je3_ZWLh-96" value="" style="endArrow=classic;html=1;rounded=0;entryX=0.012;entryY=0.395;entryDx=0;entryDy=0;entryPerimeter=0;" edge="1" parent="1">
          <mxGeometry width="50" height="50" relative="1" as="geometry">
            <mxPoint x="1254" y="238.13" as="sourcePoint" />
            <mxPoint x="1265" y="239.13" as="targetPoint" />
          </mxGeometry>
        </mxCell>
        <mxCell id="D1IQfgWgTyx_je3_ZWLh-102" value="Accéder aux présentations des histoires" style="rounded=1;whiteSpace=wrap;html=1;" vertex="1" parent="1">
          <mxGeometry x="1259" y="323.13" width="120" height="60" as="geometry" />
        </mxCell>
        <mxCell id="D1IQfgWgTyx_je3_ZWLh-103" value="Modifications des informations relatives aux histoires" style="rounded=1;whiteSpace=wrap;html=1;" vertex="1" parent="1">
          <mxGeometry x="1040" y="323.13" width="120" height="60" as="geometry" />
        </mxCell>
        <mxCell id="D1IQfgWgTyx_je3_ZWLh-104" value="" style="endArrow=none;dashed=1;html=1;dashPattern=1 3;strokeWidth=2;rounded=0;exitX=1;exitY=0.5;exitDx=0;exitDy=0;" edge="1" parent="1" source="D1IQfgWgTyx_je3_ZWLh-107">
          <mxGeometry width="50" height="50" relative="1" as="geometry">
            <mxPoint x="1153.5" y="348.31000000000006" as="sourcePoint" />
            <mxPoint x="1253.5" y="355.63" as="targetPoint" />
          </mxGeometry>
        </mxCell>
        <mxCell id="D1IQfgWgTyx_je3_ZWLh-105" value="" style="endArrow=classic;html=1;rounded=0;" edge="1" parent="1">
          <mxGeometry width="50" height="50" relative="1" as="geometry">
            <mxPoint x="1242.5" y="348.13" as="sourcePoint" />
            <mxPoint x="1242.5" y="348.13" as="targetPoint" />
          </mxGeometry>
        </mxCell>
        <mxCell id="D1IQfgWgTyx_je3_ZWLh-106" value="" style="endArrow=classic;html=1;rounded=0;entryX=0.012;entryY=0.395;entryDx=0;entryDy=0;entryPerimeter=0;" edge="1" parent="1">
          <mxGeometry width="50" height="50" relative="1" as="geometry">
            <mxPoint x="1253.5" y="355.63" as="sourcePoint" />
            <mxPoint x="1264.5" y="356.63" as="targetPoint" />
          </mxGeometry>
        </mxCell>
        <mxCell id="D1IQfgWgTyx_je3_ZWLh-108" value="" style="endArrow=none;html=1;rounded=0;" edge="1" parent="1">
          <mxGeometry width="50" height="50" relative="1" as="geometry">
            <mxPoint x="1379" y="355.63" as="sourcePoint" />
            <mxPoint x="1439.5" y="245.63" as="targetPoint" />
          </mxGeometry>
        </mxCell>
        <mxCell id="D1IQfgWgTyx_je3_ZWLh-117" value="" style="endArrow=none;dashed=1;html=1;dashPattern=1 3;strokeWidth=2;rounded=0;entryX=0;entryY=0.5;entryDx=0;entryDy=0;" edge="1" parent="1" source="D1IQfgWgTyx_je3_ZWLh-123" target="D1IQfgWgTyx_je3_ZWLh-103">
          <mxGeometry width="50" height="50" relative="1" as="geometry">
            <mxPoint x="770" y="330" as="sourcePoint" />
            <mxPoint x="820" y="280" as="targetPoint" />
          </mxGeometry>
        </mxCell>
        <mxCell id="D1IQfgWgTyx_je3_ZWLh-118" value="" style="endArrow=none;dashed=1;html=1;dashPattern=1 3;strokeWidth=2;rounded=0;entryX=0;entryY=0.5;entryDx=0;entryDy=0;" edge="1" parent="1" source="D1IQfgWgTyx_je3_ZWLh-122" target="D1IQfgWgTyx_je3_ZWLh-103">
          <mxGeometry width="50" height="50" relative="1" as="geometry">
            <mxPoint x="770" y="367.5" as="sourcePoint" />
            <mxPoint x="820" y="317.5" as="targetPoint" />
          </mxGeometry>
        </mxCell>
        <mxCell id="D1IQfgWgTyx_je3_ZWLh-119" value="" style="endArrow=none;dashed=1;html=1;dashPattern=1 3;strokeWidth=2;rounded=0;" edge="1" parent="1" source="D1IQfgWgTyx_je3_ZWLh-121">
          <mxGeometry width="50" height="50" relative="1" as="geometry">
            <mxPoint x="910" y="412.5" as="sourcePoint" />
            <mxPoint x="1040" y="350" as="targetPoint" />
          </mxGeometry>
        </mxCell>
        <mxCell id="D1IQfgWgTyx_je3_ZWLh-120" value="" style="endArrow=classic;html=1;rounded=0;" edge="1" parent="1">
          <mxGeometry width="50" height="50" relative="1" as="geometry">
            <mxPoint x="1030.5" y="352.19" as="sourcePoint" />
            <mxPoint x="1040.5" y="352.19" as="targetPoint" />
          </mxGeometry>
        </mxCell>
        <mxCell id="D1IQfgWgTyx_je3_ZWLh-124" value="" style="endArrow=none;dashed=1;html=1;dashPattern=1 3;strokeWidth=2;rounded=0;entryX=0;entryY=0.5;entryDx=0;entryDy=0;" edge="1" parent="1" target="D1IQfgWgTyx_je3_ZWLh-123">
          <mxGeometry width="50" height="50" relative="1" as="geometry">
            <mxPoint x="770" y="330" as="sourcePoint" />
            <mxPoint x="1040" y="353" as="targetPoint" />
          </mxGeometry>
        </mxCell>
        <mxCell id="D1IQfgWgTyx_je3_ZWLh-123" value="&amp;lt;&amp;lt;Extend&amp;gt;&amp;gt;" style="text;html=1;strokeColor=none;fillColor=none;align=center;verticalAlign=middle;whiteSpace=wrap;rounded=0;" vertex="1" parent="1">
          <mxGeometry x="860" y="311.25" width="60" height="30" as="geometry" />
        </mxCell>
        <mxCell id="D1IQfgWgTyx_je3_ZWLh-126" value="" style="endArrow=none;dashed=1;html=1;dashPattern=1 3;strokeWidth=2;rounded=0;entryX=0;entryY=0.5;entryDx=0;entryDy=0;" edge="1" parent="1" target="D1IQfgWgTyx_je3_ZWLh-122">
          <mxGeometry width="50" height="50" relative="1" as="geometry">
            <mxPoint x="770" y="367.5" as="sourcePoint" />
            <mxPoint x="1040" y="353" as="targetPoint" />
          </mxGeometry>
        </mxCell>
        <mxCell id="D1IQfgWgTyx_je3_ZWLh-122" value="&amp;lt;&amp;lt;Extend&amp;gt;&amp;gt;" style="text;html=1;strokeColor=none;fillColor=none;align=center;verticalAlign=middle;whiteSpace=wrap;rounded=0;" vertex="1" parent="1">
          <mxGeometry x="860" y="347.5" width="60" height="30" as="geometry" />
        </mxCell>
        <mxCell id="D1IQfgWgTyx_je3_ZWLh-127" value="" style="endArrow=none;dashed=1;html=1;dashPattern=1 3;strokeWidth=2;rounded=0;" edge="1" parent="1" target="D1IQfgWgTyx_je3_ZWLh-121">
          <mxGeometry width="50" height="50" relative="1" as="geometry">
            <mxPoint x="910" y="412.5" as="sourcePoint" />
            <mxPoint x="1040" y="350" as="targetPoint" />
          </mxGeometry>
        </mxCell>
        <mxCell id="D1IQfgWgTyx_je3_ZWLh-121" value="&amp;lt;&amp;lt;Extend&amp;gt;&amp;gt;" style="text;html=1;strokeColor=none;fillColor=none;align=center;verticalAlign=middle;whiteSpace=wrap;rounded=0;" vertex="1" parent="1">
          <mxGeometry x="940" y="367.5" width="60" height="30" as="geometry" />
        </mxCell>
        <mxCell id="D1IQfgWgTyx_je3_ZWLh-128" value="" style="endArrow=none;dashed=1;html=1;dashPattern=1 3;strokeWidth=2;rounded=0;exitX=1;exitY=0.5;exitDx=0;exitDy=0;" edge="1" parent="1" source="D1IQfgWgTyx_je3_ZWLh-103" target="D1IQfgWgTyx_je3_ZWLh-107">
          <mxGeometry width="50" height="50" relative="1" as="geometry">
            <mxPoint x="1160" y="353" as="sourcePoint" />
            <mxPoint x="1253.5" y="355.63" as="targetPoint" />
          </mxGeometry>
        </mxCell>
        <mxCell id="D1IQfgWgTyx_je3_ZWLh-107" value="&amp;lt;&amp;lt;Extend&amp;gt;&amp;gt;" style="text;html=1;strokeColor=none;fillColor=none;align=center;verticalAlign=middle;whiteSpace=wrap;rounded=0;" vertex="1" parent="1">
          <mxGeometry x="1179.5" y="338.13" width="60" height="30" as="geometry" />
        </mxCell>
        <mxCell id="D1IQfgWgTyx_je3_ZWLh-129" value="" style="endArrow=none;dashed=1;html=1;dashPattern=1 3;strokeWidth=2;rounded=0;exitX=1;exitY=0.5;exitDx=0;exitDy=0;" edge="1" parent="1" source="D1IQfgWgTyx_je3_ZWLh-85" target="D1IQfgWgTyx_je3_ZWLh-97">
          <mxGeometry width="50" height="50" relative="1" as="geometry">
            <mxPoint x="1161" y="236" as="sourcePoint" />
            <mxPoint x="1254" y="238.13" as="targetPoint" />
          </mxGeometry>
        </mxCell>
        <mxCell id="D1IQfgWgTyx_je3_ZWLh-97" value="&amp;lt;&amp;lt;Extend&amp;gt;&amp;gt;" style="text;html=1;strokeColor=none;fillColor=none;align=center;verticalAlign=middle;whiteSpace=wrap;rounded=0;" vertex="1" parent="1">
          <mxGeometry x="1180.5" y="222.5" width="60" height="30" as="geometry" />
        </mxCell>
        <mxCell id="D1IQfgWgTyx_je3_ZWLh-130" value="" style="endArrow=none;dashed=1;html=1;dashPattern=1 3;strokeWidth=2;rounded=0;exitX=1;exitY=0.5;exitDx=0;exitDy=0;" edge="1" parent="1" target="D1IQfgWgTyx_je3_ZWLh-89">
          <mxGeometry width="50" height="50" relative="1" as="geometry">
            <mxPoint x="1149.5" y="118.31" as="sourcePoint" />
            <mxPoint x="1249.5" y="125.63" as="targetPoint" />
          </mxGeometry>
        </mxCell>
        <mxCell id="D1IQfgWgTyx_je3_ZWLh-89" value="&amp;lt;&amp;lt;Extend&amp;gt;&amp;gt;" style="text;html=1;strokeColor=none;fillColor=none;align=center;verticalAlign=middle;whiteSpace=wrap;rounded=0;" vertex="1" parent="1">
          <mxGeometry x="1179.5" y="110" width="60" height="30" as="geometry" />
        </mxCell>
        <mxCell id="D1IQfgWgTyx_je3_ZWLh-132" value="" style="endArrow=none;dashed=1;html=1;dashPattern=1 3;strokeWidth=2;rounded=0;exitX=0.5;exitY=0;exitDx=0;exitDy=0;" edge="1" parent="1" source="D1IQfgWgTyx_je3_ZWLh-37" target="D1IQfgWgTyx_je3_ZWLh-42">
          <mxGeometry width="50" height="50" relative="1" as="geometry">
            <mxPoint x="380" y="478" as="sourcePoint" />
            <mxPoint x="380" y="427.5" as="targetPoint" />
          </mxGeometry>
        </mxCell>
        <mxCell id="D1IQfgWgTyx_je3_ZWLh-42" value="&amp;lt;&amp;lt;Extend&amp;gt;&amp;gt;" style="text;html=1;strokeColor=none;fillColor=none;align=center;verticalAlign=middle;whiteSpace=wrap;rounded=0;" vertex="1" parent="1">
          <mxGeometry x="350" y="435" width="60" height="30" as="geometry" />
        </mxCell>
        <mxCell id="D1IQfgWgTyx_je3_ZWLh-133" value="" style="endArrow=none;dashed=1;html=1;dashPattern=1 3;strokeWidth=2;rounded=0;entryX=0.5;entryY=1;entryDx=0;entryDy=0;exitX=0.5;exitY=0;exitDx=0;exitDy=0;" edge="1" parent="1" source="D1IQfgWgTyx_je3_ZWLh-74" target="D1IQfgWgTyx_je3_ZWLh-78">
          <mxGeometry width="50" height="50" relative="1" as="geometry">
            <mxPoint x="420" y="650" as="sourcePoint" />
            <mxPoint x="420" y="603" as="targetPoint" />
          </mxGeometry>
        </mxCell>
        <mxCell id="D1IQfgWgTyx_je3_ZWLh-78" value="&amp;lt;&amp;lt;Extend&amp;gt;&amp;gt;" style="text;html=1;strokeColor=none;fillColor=none;align=center;verticalAlign=middle;whiteSpace=wrap;rounded=0;" vertex="1" parent="1">
          <mxGeometry x="390" y="610" width="60" height="30" as="geometry" />
        </mxCell>
        <mxCell id="D1IQfgWgTyx_je3_ZWLh-134" value="" style="endArrow=none;dashed=1;html=1;dashPattern=1 3;strokeWidth=2;rounded=0;entryX=0.5;entryY=1;entryDx=0;entryDy=0;" edge="1" parent="1" target="D1IQfgWgTyx_je3_ZWLh-28">
          <mxGeometry width="50" height="50" relative="1" as="geometry">
            <mxPoint x="200" y="360" as="sourcePoint" />
            <mxPoint x="200" y="315" as="targetPoint" />
          </mxGeometry>
        </mxCell>
        <mxCell id="D1IQfgWgTyx_je3_ZWLh-28" value="&amp;lt;&amp;lt;Include&amp;gt;&amp;gt;" style="text;html=1;strokeColor=none;fillColor=none;align=center;verticalAlign=middle;whiteSpace=wrap;rounded=0;" vertex="1" parent="1">
          <mxGeometry x="170" y="317.5" width="60" height="30" as="geometry" />
        </mxCell>
        <mxCell id="D1IQfgWgTyx_je3_ZWLh-135" style="edgeStyle=orthogonalEdgeStyle;rounded=0;orthogonalLoop=1;jettySize=auto;html=1;exitX=0.5;exitY=1;exitDx=0;exitDy=0;" edge="1" parent="1" source="D1IQfgWgTyx_je3_ZWLh-65" target="D1IQfgWgTyx_je3_ZWLh-65">
          <mxGeometry relative="1" as="geometry" />
        </mxCell>
        <mxCell id="D1IQfgWgTyx_je3_ZWLh-136" value="" style="endArrow=none;dashed=1;html=1;dashPattern=1 3;strokeWidth=2;rounded=0;entryX=0;entryY=0.5;entryDx=0;entryDy=0;exitX=1;exitY=0.5;exitDx=0;exitDy=0;" edge="1" parent="1" source="D1IQfgWgTyx_je3_ZWLh-57" target="D1IQfgWgTyx_je3_ZWLh-65">
          <mxGeometry width="50" height="50" relative="1" as="geometry">
            <mxPoint x="770" y="413" as="sourcePoint" />
            <mxPoint x="830" y="413" as="targetPoint" />
          </mxGeometry>
        </mxCell>
        <mxCell id="D1IQfgWgTyx_je3_ZWLh-65" value="&amp;lt;&amp;lt;Extend&amp;gt;&amp;gt;" style="text;html=1;strokeColor=none;fillColor=none;align=center;verticalAlign=middle;whiteSpace=wrap;rounded=0;" vertex="1" parent="1">
          <mxGeometry x="770" y="397.5" width="60" height="30" as="geometry" />
        </mxCell>
      </root>
    </mxGraphModel>
  </diagram>
</mxfile>
